<svg width="44" height="45" viewBox="0 0 44 45" fill="none" xmlns="http://www.w3.org/2000/svg">
<g clip-path="url(#clip0_1211_5447)">
<path d="M38.4993 38.6892H5.49935C5.01312 38.6892 4.5468 38.4961 4.20299 38.1522C3.85917 37.8084 3.66602 37.3421 3.66602 36.8559V23.082C3.66599 22.8201 3.7221 22.5612 3.83057 22.3227C3.93904 22.0843 4.09736 21.8718 4.29485 21.6997L10.9993 15.8532V7.52254C10.9993 7.03631 11.1925 6.57 11.5363 6.22618C11.8801 5.88236 12.3465 5.68921 12.8327 5.68921H38.4993C38.9856 5.68921 39.4519 5.88236 39.7957 6.22618C40.1395 6.57 40.3327 7.03631 40.3327 7.52254V36.8559C40.3327 37.3421 40.1395 37.8084 39.7957 38.1522C39.4519 38.4961 38.9856 38.6892 38.4993 38.6892ZM16.4993 35.0225H21.9993V23.9162L14.666 17.5215L7.33268 23.9162V35.0225H12.8327V27.6892H16.4993V35.0225ZM25.666 35.0225H36.666V9.35588H14.666V13.2554C15.095 13.2554 15.5258 13.4057 15.8705 13.7082L25.0372 21.6997C25.2347 21.8718 25.393 22.0843 25.5015 22.3227C25.6099 22.5612 25.666 22.8201 25.666 23.082V35.0225ZM29.3327 20.3559H32.9993V24.0225H29.3327V20.3559ZM29.3327 27.6892H32.9993V31.3559H29.3327V27.6892ZM29.3327 13.0225H32.9993V16.6892H29.3327V13.0225ZM21.9993 13.0225H25.666V16.6892H21.9993V13.0225Z" fill="#0B0C0D"/>
</g>
<defs>
<clipPath id="clip0_1211_5447">
<rect width="44" height="44" fill="white" transform="translate(0 0.189209)"/>
</clipPath>
</defs>
</svg>
