<svg width="44" height="45" viewBox="0 0 44 45" fill="none" xmlns="http://www.w3.org/2000/svg">
<g clip-path="url(#clip0_1211_5452)">
<path d="M4.11152 12.7551L21.0643 2.5911C21.3493 2.42014 21.6753 2.32983 22.0076 2.32983C22.3399 2.32983 22.6659 2.42014 22.9508 2.5911L39.8872 12.7569C40.0231 12.8384 40.1355 12.9536 40.2136 13.0915C40.2917 13.2293 40.3327 13.385 40.3327 13.5434V36.8561C40.3327 37.3423 40.1395 37.8086 39.7957 38.1525C39.4519 38.4963 38.9856 38.6894 38.4993 38.6894H5.49935C5.01312 38.6894 4.5468 38.4963 4.20299 38.1525C3.85917 37.8086 3.66602 37.3423 3.66602 36.8561V13.5416C3.66598 13.3832 3.707 13.2275 3.78508 13.0896C3.86316 12.9518 3.97563 12.8365 4.11152 12.7551ZM7.33268 15.0999V35.0228H36.666V15.0981L22.0067 6.2981L7.33268 15.0981V15.0999ZM22.1094 25.3024L31.8187 17.1203L34.18 19.9253L22.135 30.0764L9.83335 19.9381L12.1653 17.1074L22.1094 25.3024V25.3024Z" fill="#0B0C0D"/>
</g>
<defs>
<clipPath id="clip0_1211_5452">
<rect width="44" height="44" fill="white" transform="translate(0 0.189209)"/>
</clipPath>
</defs>
</svg>
