<svg width="44" height="45" viewBox="0 0 44 45" fill="none" xmlns="http://www.w3.org/2000/svg">
<g clip-path="url(#clip0_1211_5458)">
<path d="M17.171 19.7729C18.8913 22.7951 21.3941 25.2979 24.4163 27.0182L26.037 24.7485C26.2976 24.3836 26.683 24.1268 27.1201 24.0268C27.5573 23.9268 28.016 23.9905 28.4093 24.2059C31.0023 25.6229 33.8657 26.4751 36.8115 26.7065C37.2713 26.743 37.7004 26.9514 38.0133 27.2901C38.3263 27.6289 38.5001 28.0732 38.5 28.5344V36.7147C38.5001 37.1686 38.3318 37.6065 38.0277 37.9434C37.7235 38.2804 37.3052 38.4926 36.8537 38.5389C35.882 38.6397 34.903 38.6892 33.9167 38.6892C18.2233 38.6892 5.5 25.9659 5.5 10.2725C5.5 9.28621 5.5495 8.30721 5.65033 7.33554C5.69663 6.88399 5.9088 6.46566 6.24578 6.16154C6.58276 5.85741 7.02058 5.68911 7.4745 5.68921H15.6548C16.116 5.68915 16.5603 5.86292 16.8991 6.17587C17.2379 6.48882 17.4462 6.91795 17.4827 7.37771C17.7141 10.3235 18.5663 13.187 19.9833 15.7799C20.1987 16.1732 20.2624 16.6319 20.1624 17.0691C20.0624 17.5062 19.8056 17.8916 19.4407 18.1522L17.171 19.7729V19.7729ZM12.5473 18.5684L16.0307 16.0805C15.0421 13.9467 14.3648 11.6821 14.0195 9.35588H9.185C9.174 9.66021 9.1685 9.96638 9.1685 10.2725C9.16667 23.9419 20.2473 35.0225 33.9167 35.0225C34.2228 35.0225 34.529 35.017 34.8333 35.0042V30.1697C32.5071 29.8244 30.2425 29.1471 28.1087 28.1585L25.6208 31.6419C24.6192 31.2527 23.6463 30.7932 22.7095 30.2669L22.6032 30.2064C19.0072 28.1599 16.0293 25.182 13.9828 21.586L13.9223 21.4797C13.396 20.5429 12.9365 19.57 12.5473 18.5684V18.5684Z" fill="#0B0C0D"/>
</g>
<defs>
<clipPath id="clip0_1211_5458">
<rect width="44" height="44" fill="white" transform="translate(0 0.189209)"/>
</clipPath>
</defs>
</svg>
