<svg width="24" height="25" viewBox="0 0 24 25" fill="none" xmlns="http://www.w3.org/2000/svg">
<path d="M7.25301 19.1522L7.97701 19.5752C9.19795 20.2873 10.5866 20.6611 12 20.6582C13.5823 20.6582 15.129 20.189 16.4446 19.31C17.7602 18.4309 18.7855 17.1815 19.3911 15.7197C19.9966 14.2579 20.155 12.6493 19.8463 11.0975C19.5376 9.54563 18.7757 8.12017 17.6569 7.00135C16.538 5.88253 15.1126 5.1206 13.5607 4.81192C12.0089 4.50324 10.4004 4.66167 8.93855 5.26717C7.47674 5.87267 6.22731 6.89805 5.34826 8.21364C4.46921 9.52923 4.00001 11.076 4.00001 12.6582C4.00001 14.0942 4.37701 15.4712 5.08401 16.6822L5.50601 17.4062L4.85301 19.8072L7.25301 19.1522ZM2.00401 22.6582L3.35601 17.6902C2.46515 16.1631 1.99711 14.4262 2.00001 12.6582C2.00001 7.1352 6.47701 2.6582 12 2.6582C17.523 2.6582 22 7.1352 22 12.6582C22 18.1812 17.523 22.6582 12 22.6582C10.2328 22.6611 8.49667 22.1934 6.97001 21.3032L2.00401 22.6582ZM8.39101 7.9662C8.52501 7.9562 8.66001 7.9562 8.79401 7.9622C8.84801 7.9662 8.90201 7.9722 8.95601 7.9782C9.11501 7.9962 9.29001 8.0932 9.34901 8.2272C9.64701 8.9032 9.93701 9.5842 10.217 10.2672C10.279 10.4192 10.242 10.6142 10.124 10.8042C10.0429 10.9327 9.95507 11.0568 9.86101 11.1762C9.74801 11.3212 9.50501 11.5872 9.50501 11.5872C9.50501 11.5872 9.40601 11.7052 9.44401 11.8522C9.45801 11.9082 9.50401 11.9892 9.54601 12.0572L9.60501 12.1522C9.86101 12.5792 10.205 13.0122 10.625 13.4202C10.745 13.5362 10.862 13.6552 10.988 13.7662C11.456 14.1792 11.986 14.5162 12.558 14.7662L12.563 14.7682C12.648 14.8052 12.691 14.8252 12.815 14.8782C12.877 14.9042 12.941 14.9272 13.006 14.9442C13.0732 14.9613 13.1439 14.9581 13.2093 14.9349C13.2746 14.9118 13.3316 14.8698 13.373 14.8142C14.097 13.9372 14.163 13.8802 14.169 13.8802V13.8822C14.2193 13.8353 14.2791 13.7997 14.3443 13.7778C14.4095 13.7559 14.4786 13.7482 14.547 13.7552C14.607 13.7592 14.668 13.7702 14.724 13.7952C15.255 14.0382 16.124 14.4172 16.124 14.4172L16.706 14.6782C16.804 14.7252 16.893 14.8362 16.896 14.9432C16.9 15.0102 16.906 15.1182 16.883 15.3162C16.851 15.5752 16.773 15.8862 16.695 16.0492C16.6416 16.1604 16.5707 16.2624 16.485 16.3512C16.3841 16.4572 16.2736 16.5536 16.155 16.6392C16.114 16.6701 16.0723 16.7001 16.03 16.7292C15.9056 16.8081 15.7778 16.8815 15.647 16.9492C15.3895 17.086 15.1052 17.1645 14.814 17.1792C14.629 17.1892 14.444 17.2032 14.258 17.1932C14.25 17.1932 13.69 17.1062 13.69 17.1062C12.2683 16.7322 10.9534 16.0317 9.85001 15.0602C9.62401 14.8612 9.41501 14.6472 9.20101 14.4342C8.31101 13.5492 7.63901 12.5942 7.23101 11.6922C7.02218 11.2495 6.90938 10.7676 6.90001 10.2782C6.89589 9.67105 7.09436 9.07987 7.46401 8.5982C7.53701 8.5042 7.60601 8.4062 7.72501 8.2932C7.85201 8.1732 7.93201 8.1092 8.01901 8.0652C8.13469 8.00723 8.26088 7.97322 8.39001 7.9652L8.39101 7.9662Z" fill="white"/>
</svg>
